<svg width="25" height="25" viewBox="0 0 25 25" fill="currentColor" xmlns="http://www.w3.org/2000/svg">
<path d="M7.8584 11.7404L11.8584 2.74045C12.654 2.74045 13.4171 3.05652 13.9797 3.61913C14.5423 4.18174 14.8584 4.9448 14.8584 5.74045V9.74045H20.5184C20.8083 9.73716 21.0955 9.79695 21.36 9.91567C21.6245 10.0344 21.86 10.2092 22.0503 10.428C22.2405 10.6467 22.3809 10.9043 22.4617 11.1827C22.5426 11.4611 22.5619 11.7538 22.5184 12.0404L21.1384 21.0404C21.0661 21.5174 20.8238 21.9521 20.4563 22.2645C20.0888 22.5769 19.6207 22.7459 19.1384 22.7404H7.8584M7.8584 11.7404V22.7404M7.8584 11.7404H4.8584C4.32797 11.7404 3.81926 11.9512 3.44418 12.3262C3.06911 12.7013 2.8584 13.21 2.8584 13.7404V20.7404C2.8584 21.2709 3.06911 21.7796 3.44418 22.1547C3.81926 22.5297 4.32797 22.7404 4.8584 22.7404H7.8584" stroke="green" stroke-width="2" stroke-linecap="round" stroke-linejoin="round"/>
</svg>
